<svg width="1200" height="675" viewBox="0 0 1200 675" fill="none" xmlns="http://www.w3.org/2000/svg">
  <defs>
    <linearGradient id="g1" x1="0" y1="0" x2="1" y2="1">
      <stop offset="0%" stop-color="#8B5CF6"/>
      <stop offset="100%" stop-color="#06B6D4"/>
    </linearGradient>
  </defs>
  <rect width="1200" height="675" fill="#0B0F1A"/>
  <g opacity=".18">
    <circle cx="1000" cy="-50" r="300" fill="url(#g1)"/>
    <circle cx="200" cy="700" r="260" fill="url(#g1)"/>
  </g>
  <rect x="180" y="160" width="840" height="360" rx="18" fill="#0f172a" stroke="rgba(255,255,255,.12)"/>
  <rect x="180" y="160" width="840" height="64" rx="18" fill="#111827"/>
  <circle cx="220" cy="192" r="8" fill="#ef4444"/>
  <circle cx="244" cy="192" r="8" fill="#f59e0b"/>
  <circle cx="268" cy="192" r="8" fill="#10b981"/>
  <rect x="210" y="250" width="200" height="200" rx="12" fill="#111827" stroke="rgba(255,255,255,.08)"/>
  <rect x="440" y="250" width="260" height="18" rx="6" fill="#94a3b8" opacity=".5"/>
  <rect x="440" y="280" width="360" height="14" rx="6" fill="#94a3b8" opacity=".35"/>
  <rect x="440" y="304" width="320" height="14" rx="6" fill="#94a3b8" opacity=".3"/>
  <rect x="440" y="344" width="120" height="36" rx="18" fill="url(#g1)"/>
  <rect x="572" y="344" width="120" height="36" rx="18" fill="#1f2937"/>
  <text x="460" y="368" fill="#ffffff" font-family="Inter, system-ui, -apple-system" font-size="14">Add to cart</text>
  <text x="604" y="368" fill="#cbd5e1" font-family="Inter, system-ui, -apple-system" font-size="14">Details</text>
  <text x="210" y="480" fill="#cbd5e1" font-family="Inter, system-ui, -apple-system" font-size="14" opacity=".75">E‑commerce UI placeholder</text>
</svg>







